<svg width="35" height="37" viewBox="0 0 35 37" fill="none" xmlns="http://www.w3.org/2000/svg">
<path id="Vector" d="M0 1.32105C0 0.970687 0.131671 0.634672 0.366046 0.386927C0.600421 0.139181 0.918302 0 1.24976 0H2.34455C4.1617 0 5.20649 1.24971 5.81138 2.49679C6.2238 3.35019 6.52124 4.39117 6.76869 5.29477H32.5012C32.8874 5.29489 33.2684 5.38962 33.6141 5.57152C33.9599 5.75341 34.2611 6.01753 34.4941 6.34314C34.727 6.66876 34.8854 7.04701 34.9569 7.44822C35.0283 7.84942 35.0108 8.26267 34.9058 8.65553L31.1665 22.5926C30.869 23.6984 30.2386 24.6714 29.3707 25.3642C28.5029 26.057 27.4449 26.4317 26.3574 26.4316H13.6624C12.5658 26.432 11.4995 26.0512 10.6277 25.348C9.75602 24.6447 9.12725 23.658 8.83829 22.5398L7.2336 16.3176L7.20861 16.2331L4.63411 6.991L4.38415 6.10061C4.1342 5.18645 3.91424 4.37796 3.58431 3.69894C3.18689 2.87989 2.82196 2.6421 2.34455 2.6421H1.24976C0.918302 2.6421 0.600421 2.50292 0.366046 2.25518C0.131671 2.00743 0 1.67142 0 1.32105ZM13.7548 37C14.7492 37 15.7029 36.5825 16.406 35.8392C17.1091 35.096 17.5041 34.0879 17.5041 33.0368C17.5041 31.9858 17.1091 30.9777 16.406 30.2345C15.7029 29.4912 14.7492 29.0737 13.7548 29.0737C12.7605 29.0737 11.8068 29.4912 11.1037 30.2345C10.4006 30.9777 10.0056 31.9858 10.0056 33.0368C10.0056 34.0879 10.4006 35.096 11.1037 35.8392C11.8068 36.5825 12.7605 37 13.7548 37ZM26.2524 37C27.2468 37 28.2004 36.5825 28.9036 35.8392C29.6067 35.096 30.0017 34.0879 30.0017 33.0368C30.0017 31.9858 29.6067 30.9777 28.9036 30.2345C28.2004 29.4912 27.2468 29.0737 26.2524 29.0737C25.2581 29.0737 24.3044 29.4912 23.6013 30.2345C22.8982 30.9777 22.5032 31.9858 22.5032 33.0368C22.5032 34.0879 22.8982 35.096 23.6013 35.8392C24.3044 36.5825 25.2581 37 26.2524 37Z" fill="#0FA958" style="fill:#0FA958;fill:color(display-p3 0.0588 0.6627 0.3451);fill-opacity:1;"/>
</svg>
