<svg width="54" height="54" viewBox="0 0 54 54" fill="none" xmlns="http://www.w3.org/2000/svg">
<g id="Group 16">
<circle id="Ellipse 17" cx="27" cy="27" r="26.5" fill="white" stroke="black" style="fill:white;fill-opacity:1;stroke:black;stroke-opacity:1;"/>
<g id="&#240;&#159;&#166;&#134; icon &#34;home 2&#34;">
<g id="Group">
<path id="Vector" d="M34.3341 40H18.6975C14.9977 40 12 36.9888 12 33.289V23.2832C12 21.4467 13.1343 19.1377 14.5926 18.0034L21.8708 12.3321C24.0583 10.6307 27.5556 10.5497 29.8241 12.1431L38.169 17.9899C39.7759 19.1107 41.0316 21.5142 41.0316 23.4722V33.3025C41.0316 36.9888 38.034 40 34.3341 40ZM23.113 13.9255L15.8349 19.5968C14.8762 20.353 14.0255 22.0679 14.0255 23.2832V33.289C14.0255 35.8681 16.1184 37.9745 18.6975 37.9745H34.3341C36.9132 37.9745 39.0062 35.8816 39.0062 33.3025V23.4722C39.0062 22.1759 38.0745 20.38 37.0077 19.6508L28.6628 13.804C27.1235 12.7237 24.5849 12.7777 23.113 13.9255Z" fill="#086D24" style="fill:#086D24;fill:color(display-p3 0.0304 0.4292 0.1421);fill-opacity:1;"/>
<path id="Vector_2" d="M26.5157 34.5988C25.962 34.5988 25.5029 34.1397 25.5029 33.586V29.5351C25.5029 28.9815 25.962 28.5224 26.5157 28.5224C27.0693 28.5224 27.5284 28.9815 27.5284 29.5351V33.586C27.5284 34.1397 27.0693 34.5988 26.5157 34.5988Z" fill="#086D24" style="fill:#086D24;fill:color(display-p3 0.0304 0.4292 0.1421);fill-opacity:1;"/>
</g>
</g>
</g>
</svg>
