<svg width="19" height="19" viewBox="0 0 19 19" fill="none" xmlns="http://www.w3.org/2000/svg">
<g id="&#240;&#159;&#166;&#134; icon &#34;search normal 1&#34;">
<g id="Group">
<path id="Vector" d="M9.05818 18.1164C4.06514 18.1164 0 14.0512 0 9.05818C0 4.06514 4.06514 0 9.05818 0C14.0512 0 18.1164 4.06514 18.1164 9.05818C18.1164 14.0512 14.0512 18.1164 9.05818 18.1164ZM9.05818 1.32559C4.78979 1.32559 1.32559 4.79863 1.32559 9.05818C1.32559 13.3177 4.78979 16.7908 9.05818 16.7908C13.3266 16.7908 16.7908 13.3177 16.7908 9.05818C16.7908 4.79863 13.3266 1.32559 9.05818 1.32559Z" fill="#292D32" style="fill:#292D32;fill:color(display-p3 0.1608 0.1765 0.1961);fill-opacity:1;"/>
<path id="Vector_2" d="M18.3376 19C18.1697 19 18.0018 18.9381 17.8693 18.8056L16.1018 17.0381C15.8455 16.7819 15.8455 16.3577 16.1018 16.1014C16.3581 15.8451 16.7823 15.8451 17.0386 16.1014L18.806 17.8688C19.0623 18.1251 19.0623 18.5493 18.806 18.8056C18.6735 18.9381 18.5055 19 18.3376 19Z" fill="#292D32" style="fill:#292D32;fill:color(display-p3 0.1608 0.1765 0.1961);fill-opacity:1;"/>
</g>
</g>
</svg>
