<svg width="27" height="26" viewBox="0 0 27 26" fill="none" xmlns="http://www.w3.org/2000/svg">
<path id="Vector" d="M26.3254 11.8432L20.8929 16.5816L22.5203 23.6361C22.6064 24.0049 22.5818 24.3909 22.4496 24.7458C22.3174 25.1007 22.0835 25.4088 21.7771 25.6315C21.4706 25.8543 21.1053 25.9818 20.7267 25.9982C20.3482 26.0146 19.9732 25.919 19.6486 25.7236L13.4922 21.9916L7.34897 25.7236C7.02443 25.919 6.64944 26.0146 6.27087 25.9982C5.89231 25.9818 5.52697 25.8543 5.22053 25.6315C4.9141 25.4088 4.68016 25.1007 4.54798 24.7458C4.41579 24.3909 4.39122 24.0049 4.47733 23.6361L6.10227 16.5888L0.668551 11.8432C0.381156 11.5955 0.17334 11.2685 0.0711625 10.9032C-0.0310148 10.5379 -0.0230046 10.1506 0.0941887 9.78982C0.211382 9.42906 0.432541 9.11091 0.729933 8.87527C1.02732 8.63962 1.38771 8.49698 1.76589 8.46522L8.92814 7.84523L11.7239 1.18073C11.8699 0.831036 12.1162 0.532327 12.4317 0.322219C12.7472 0.112112 13.1178 0 13.497 0C13.8761 0 14.2468 0.112112 14.5623 0.322219C14.8778 0.532327 15.1241 0.831036 15.2701 1.18073L18.0743 7.84523L25.2341 8.46522C25.6123 8.49698 25.9727 8.63962 26.2701 8.87527C26.5675 9.11091 26.7886 9.42906 26.9058 9.78982C27.023 10.1506 27.031 10.5379 26.9288 10.9032C26.8267 11.2685 26.6188 11.5955 26.3314 11.8432H26.3254Z" fill="#FFD600" style="fill:#FFD600;fill:color(display-p3 1.0000 0.8400 0.0000);fill-opacity:1;"/>
</svg>
